<?xml version="1.0" encoding="UTF-8" standalone="no"?>
<!DOCTYPE svg PUBLIC "-//W3C//DTD SVG 1.1//EN" "http://www.w3.org/Graphics/SVG/1.1/DTD/svg11.dtd">
<svg width="100%" height="100%" viewBox="0 0 2500 524" version="1.1" xmlns="http://www.w3.org/2000/svg" xmlns:xlink="http://www.w3.org/1999/xlink" xml:space="preserve" xmlns:serif="http://www.serif.com/" style="fill-rule:evenodd;clip-rule:evenodd;stroke-linejoin:round;stroke-miterlimit:2;">
    <g transform="matrix(1,0,0,1,-3123.31,-605.476)">
        <g id="OP-TRADER-Logo" serif:id="OP TRADER Logo" transform="matrix(1,0,0,1,3123.31,605.476)">
            <rect x="0" y="0" width="2500" height="524" style="fill:none;"/>
            <g id="Main-Text" serif:id="Main Text" transform="matrix(3.44072,0,0,0.394564,-3525.68,-66.7397)">
                <g id="OP-TRADER-Text" serif:id="OP TRADER Text">
                    <g id="Main-Text1" serif:id="Main Text">
                        <g id="O" transform="matrix(1,0,0,1.0676,0,-34.6131)">
                            <path d="M1142.86,848.398C1143.13,882.567 1142.94,915.789 1142.29,948.064C1141.64,980.34 1140.58,1010.88 1139.1,1039.7C1137.62,1068.52 1135.75,1095.21 1133.5,1119.77C1131.26,1144.34 1128.68,1165.8 1125.78,1184.16C1122.87,1202.52 1119.67,1217.38 1116.17,1228.75C1112.67,1240.11 1108.91,1247.01 1104.91,1249.43C1101.04,1251.78 1097.31,1249.7 1093.73,1243.19C1090.15,1236.68 1086.77,1226.56 1083.59,1212.83C1080.41,1199.1 1077.5,1182 1074.84,1161.54C1072.19,1141.07 1069.89,1117.94 1067.93,1092.15C1065.97,1066.36 1064.39,1038.37 1063.17,1008.16C1061.96,977.962 1061.22,946.152 1060.95,912.734C1060.69,880.068 1060.89,847.785 1061.54,815.885C1062.2,783.985 1063.27,753.627 1064.75,724.811C1066.22,695.996 1068.08,669.218 1070.3,644.478C1072.53,619.737 1075.07,598.013 1077.93,579.303C1080.79,560.594 1083.92,545.489 1087.34,533.989C1090.75,522.49 1094.39,515.566 1098.27,513.218C1104.51,509.436 1110.27,514.434 1115.55,528.214C1120.83,541.993 1125.42,563.456 1129.3,592.604C1133.19,621.752 1136.32,657.967 1138.67,701.248C1141.03,744.529 1142.42,793.579 1142.86,848.398ZM1114.3,880.415C1114.17,864.269 1113.78,848.756 1113.12,833.876C1112.46,818.995 1111.57,805.954 1110.44,794.752C1109.31,783.551 1107.95,774.752 1106.37,768.357C1104.78,761.961 1103,759.363 1101.02,760.563C1098.99,761.789 1097.21,766.076 1095.67,773.424C1094.12,780.772 1092.83,790.33 1091.77,802.098C1090.72,813.866 1089.95,827.348 1089.47,842.545C1088.98,857.741 1088.81,873.6 1088.94,890.121C1089.06,905.891 1089.45,921.504 1090.09,936.961C1090.73,952.418 1091.62,966.217 1092.76,978.357C1093.89,990.497 1095.26,1000.05 1096.85,1007.01C1098.44,1013.96 1100.25,1016.83 1102.27,1015.61C1104.29,1014.38 1106.08,1009.8 1107.64,1001.88C1109.2,993.955 1110.5,983.74 1111.52,971.234C1112.55,958.728 1113.3,944.595 1113.78,928.836C1114.26,913.076 1114.43,896.936 1114.3,880.415Z" style="fill-rule:nonzero;"/>
                        </g>
                        <path id="P" d="M1223.3,672.466C1223.49,708.939 1223.03,741.519 1221.92,770.207C1220.82,798.895 1219.23,824.191 1217.16,846.096C1215.09,868.001 1212.63,886.857 1209.77,902.664C1206.91,918.471 1203.84,931.632 1200.54,942.146C1197.25,952.661 1193.82,960.777 1190.27,966.496C1186.71,972.215 1183.21,975.935 1179.76,977.655L1181.11,1240.48L1150.97,1252.23C1150.53,1166.12 1150.11,1080.39 1149.71,995.017C1149.32,909.647 1148.94,823.517 1148.59,736.626C1148.44,690.719 1148.22,644.838 1147.94,598.982C1147.67,553.127 1147.54,506.836 1147.56,460.11C1153,443.671 1158.47,430.804 1163.95,421.509C1169.43,412.213 1175.11,406.423 1180.97,404.138C1184.29,402.844 1187.62,403.9 1190.97,407.306C1194.31,410.712 1197.53,416.898 1200.62,425.866C1203.71,434.833 1206.6,446.423 1209.29,460.634C1211.98,474.846 1214.32,492.11 1216.33,512.427C1218.33,532.744 1219.95,556.13 1221.19,582.586C1222.43,609.042 1223.13,639.002 1223.3,672.466ZM1194.68,702.835C1194.56,678.395 1193.61,659.644 1191.84,646.584C1190.06,633.523 1187.82,627.523 1185.1,628.581C1184.19,628.934 1183.26,629.958 1182.3,631.652C1181.33,633.346 1180.43,635.301 1179.57,637.517L1179.64,802.51C1180.25,803.027 1180.83,803.176 1181.39,802.958C1181.95,802.739 1182.54,802.512 1183.14,802.277C1184.69,801.672 1186.18,798.832 1187.6,793.757C1189.02,788.682 1190.27,781.696 1191.35,772.799C1192.43,763.902 1193.27,753.589 1193.88,741.86C1194.49,730.132 1194.76,717.123 1194.68,702.835Z" style="fill-rule:nonzero;"/>
                        <path id="T" d="M1322.01,387.974L1321.92,627.418L1302.65,637.664L1299,1173.65L1271.71,1190.99L1270.58,655.862L1251.31,668.366L1251.45,401.806L1322.01,387.974Z" style="fill-rule:nonzero;"/>
                        <path id="R" d="M1403.08,647.751C1403.1,677.108 1402.82,703.747 1402.24,727.668C1401.67,751.589 1400.77,773.545 1399.52,793.537C1398.28,813.529 1396.67,832.029 1394.69,849.036C1392.71,866.043 1390.33,882.312 1387.53,897.842L1403.05,1136.67L1373.94,1187.38L1363.86,947.231L1355.83,949.773L1354.77,1184.67L1326.93,1185.66C1327.11,1099.83 1327.28,1014.39 1327.43,929.321C1327.59,844.253 1327.77,758.807 1327.99,672.984C1328.06,629.697 1328.12,586.787 1328.19,544.253C1328.26,501.72 1328.41,458.806 1328.65,415.514C1331.66,405.621 1334.64,397.424 1337.57,390.922C1340.5,384.42 1343.45,379.329 1346.4,375.649C1349.36,371.969 1352.36,369.417 1355.4,367.992C1358.44,366.568 1361.56,365.799 1364.75,365.686C1369.67,365.513 1374.43,371.273 1379.04,382.967C1383.64,394.66 1387.71,412.301 1391.26,435.887C1394.81,459.474 1397.67,488.92 1399.82,524.224C1401.97,559.528 1403.06,600.704 1403.08,647.751ZM1374.09,666.841C1374.08,651.033 1373.82,636.551 1373.32,623.395C1372.82,610.24 1372.08,598.88 1371.1,589.317C1370.13,579.753 1368.92,572.268 1367.47,566.862C1366.02,561.455 1364.32,558.786 1362.38,558.855C1361.52,558.885 1360.68,559.386 1359.86,560.356C1359.04,561.325 1358.24,562.765 1357.46,564.674L1356.53,774.73L1358.08,774.675C1359.93,774.609 1361.82,772.473 1363.74,768.265C1365.66,764.057 1367.38,757.597 1368.91,748.887C1370.44,740.176 1371.69,729.029 1372.65,715.445C1373.62,701.861 1374.09,685.659 1374.09,666.841Z" style="fill-rule:nonzero;"/>
                        <path id="A" d="M1489.47,1152.83L1457.3,1185.33L1453.61,1057.3L1438.85,1055.63L1435.42,1182.85L1402.45,1150.88L1429.33,401.855L1465.35,390.125L1489.47,1152.83ZM1451.54,884.295L1446.91,687.284L1441.83,883.196L1451.54,884.295Z" style="fill-rule:nonzero;"/>
                        <path id="D" d="M1565.67,774.098C1565.49,826.765 1564.54,874.048 1562.83,915.945C1561.13,957.843 1558.82,994.87 1555.92,1027.03C1553.02,1059.18 1549.61,1086.59 1545.68,1109.24C1541.76,1131.89 1537.48,1150.21 1532.86,1164.19C1528.23,1178.18 1523.32,1188.13 1518.14,1194.06C1512.96,1199.99 1507.65,1202.21 1502.22,1200.72C1500.19,1200.17 1498.21,1199.15 1496.27,1197.68C1494.33,1196.21 1492.35,1194.26 1490.33,1191.82L1494.87,435.035C1499.66,423.166 1504.58,415.191 1509.62,411.11C1514.67,407.029 1519.67,405.667 1524.63,407.023C1530.8,408.709 1536.44,418.348 1541.56,435.94C1546.68,453.532 1551.06,478.077 1554.71,509.575C1558.35,541.073 1561.14,579.115 1563.07,623.702C1565.01,668.289 1565.87,718.421 1565.67,774.098ZM1539.01,802.959C1539.13,782.657 1538.95,763.027 1538.48,744.069C1538.01,725.112 1537.18,708.224 1536.01,693.404C1534.83,678.584 1533.31,666.495 1531.44,657.135C1529.57,647.776 1527.33,642.36 1524.7,640.888L1520.85,990.043C1523.45,987.365 1525.83,980.578 1527.99,969.682C1530.14,958.786 1532.01,945.176 1533.61,928.854C1535.2,912.532 1536.45,894.235 1537.37,873.962C1538.28,853.69 1538.82,832.655 1538.99,810.86L1539.01,802.959Z" style="fill-rule:nonzero;"/>
                        <path id="E" d="M1633.86,437.245C1633.4,472.469 1632.96,507.328 1632.55,541.819C1632.14,576.311 1631.66,611.15 1631.11,646.338L1603.63,646.903L1602.58,717.672L1621.85,725.994L1619.43,900.183L1600,897.444L1598.88,979.491L1626.3,991.331C1625.81,1032.57 1625.31,1073.52 1624.79,1114.19C1624.28,1154.86 1623.8,1195.63 1623.35,1236.51L1567.55,1223.72L1574.24,411.497L1633.86,437.245Z" style="fill-rule:nonzero;"/>
                        <path id="R1" serif:id="R" d="M1711.55,754.745C1711.31,784.029 1710.81,810.41 1710.03,833.889C1709.26,857.368 1708.16,878.669 1706.75,897.792C1705.34,916.914 1703.58,934.308 1701.46,949.973C1699.34,965.638 1696.82,980.298 1693.89,993.953L1707.31,1242.27L1677.85,1273.78L1669.86,1027.71L1661.84,1024.99L1658.76,1258.54L1630.99,1241.3C1631.91,1155.83 1632.81,1070.74 1633.69,986.01C1634.58,901.283 1635.5,816.2 1636.46,730.762C1636.9,687.641 1637.33,644.896 1637.77,602.525C1638.2,560.155 1638.72,517.463 1639.33,474.449C1642.42,466.559 1645.46,460.331 1648.44,455.767C1651.42,451.202 1654.4,448.052 1657.38,446.316C1660.35,444.58 1663.37,443.998 1666.41,444.568C1669.46,445.139 1672.57,446.413 1675.76,448.391C1680.67,451.438 1685.37,460.298 1689.86,474.971C1694.34,489.643 1698.26,509.902 1701.59,535.746C1704.93,561.589 1707.52,592.818 1709.36,629.432C1711.21,666.045 1711.94,707.817 1711.55,754.745ZM1682.48,754.804C1682.6,739.036 1682.47,724.428 1682.09,710.981C1681.7,697.533 1681.06,685.722 1680.17,675.547C1679.28,665.372 1678.13,657.115 1676.74,650.776C1675.34,644.437 1673.67,640.666 1671.73,639.463C1670.87,638.929 1670.03,638.877 1669.2,639.307C1668.38,639.738 1667.57,640.651 1666.78,642.047L1664.04,850.896L1665.59,851.858C1667.44,853.008 1669.34,852.112 1671.29,849.172C1673.24,846.232 1675.01,840.919 1676.61,833.233C1678.21,825.547 1679.55,815.247 1680.63,802.332C1681.71,789.418 1682.32,773.576 1682.48,754.804Z" style="fill-rule:nonzero;"/>
                    </g>
                </g>
            </g>
        </g>
    </g>
</svg>
